ply
format ascii 1.0
comment Created in Blender version 4.0.1
element vertex 64
property float x
property float y
property float z
property float nx
property float ny
property float nz
property uchar red
property uchar green
property uchar blue
property uchar alpha
element face 64
property list uchar uint vertex_indices
end_header
1.1882698e-11 0.024989001 -0.011278244 9.303058e-07 37.567738 -5.80379 254 193 0 255
0 0.02630651 -2.3774521e-07 0 37.75664 -4.4107795 254 193 0 255
0.004153867 0.020882899 -0.02267114 7.334393 36.872448 -5.6256814 254 252 43 255
0.0047930963 0.02409652 -0.0007746822 7.3634524 37.018562 -4.519363 254 252 43 255
0.009562877 0.023086825 -0.011278244 14.376553 34.70806 -5.8037896 254 193 1 255
0.010067066 0.024304045 -2.3774521e-07 14.448838 34.88259 -4.410767 254 193 0 255
0.011829212 0.017703667 -0.02267114 20.886566 31.258951 -5.625678 254 252 43 255
0.013649582 0.020428045 -0.0007746822 20.969337 31.382822 -4.519361 254 252 43 255
0.017669892 0.017669892 -0.011278244 26.5644 26.564405 -5.803787 254 193 1 255
0.01860151 0.01860151 -2.3774521e-07 26.697977 26.697977 -4.410775 254 193 3 255
0.017703667 0.011829212 -0.02267114 31.25895 20.886572 -5.62568 254 252 43 255
0.020428045 0.013649582 -0.0007746822 31.382814 20.96934 -4.5193596 254 252 43 255
0.023086825 0.009562877 -0.011278244 34.708065 14.376554 -5.803789 254 193 3 255
0.024304045 0.010067066 -2.3774521e-07 34.882587 14.448845 -4.4107714 254 193 0 255
0.020882899 0.004153867 -0.02267114 36.872448 7.334388 -5.625678 254 252 43 255
0.02409652 0.0047930963 -0.0007746822 37.018562 7.363454 -4.519361 254 252 43 255
0.024989001 9.05348e-12 -0.011278244 37.567738 -5.2329706e-06 -5.8037877 254 194 6 255
0.02630651 0 -2.3774521e-07 37.756645 1.7967325e-06 -4.410771 254 193 0 255
0.020882899 -0.004153867 -0.02267114 36.872448 -7.334395 -5.6256785 254 252 43 255
0.02409652 -0.0047930963 -0.0007746822 37.018562 -7.3634496 -4.51936 254 252 43 255
0.023086825 -0.009562877 -0.011278244 34.708065 -14.376554 -5.8037887 254 193 0 255
0.024304045 -0.010067066 -2.3774521e-07 34.88259 -14.448836 -4.4107723 254 193 0 255
0.017703667 -0.011829212 -0.02267114 31.25895 -20.886572 -5.62568 254 252 43 255
0.020428045 -0.013649582 -0.0007746822 31.382816 -20.969337 -4.519359 254 252 43 255
0.017669892 -0.017669892 -0.011278244 26.5644 -26.564405 -5.803789 254 193 0 255
0.01860151 -0.01860151 -2.3774521e-07 26.697977 -26.697975 -4.410775 254 194 4 255
0.011829212 -0.017703667 -0.02267114 20.886566 -31.258951 -5.62568 254 252 43 255
0.013649582 -0.020428045 -0.0007746822 20.969334 -31.382816 -4.51936 254 252 43 255
0.009562877 -0.023086825 -0.011278244 14.376554 -34.708065 -5.803789 254 193 0 255
0.010067066 -0.024304045 -2.3774521e-07 14.448839 -34.88259 -4.4107637 254 193 1 255
0.004153867 -0.020882899 -0.02267114 7.33439 -36.872448 -5.62568 254 252 43 255
0.0047930963 -0.02409652 -0.0007746822 7.3634524 -37.018562 -4.519361 254 252 43 255
1.1882698e-11 -0.024989001 -0.011278244 -9.303058e-07 -37.567738 -5.80379 254 193 0 255
0 -0.02630651 -2.3774521e-07 0 -37.75664 -4.4107785 254 193 0 255
-0.004153867 -0.020882899 -0.02267114 -7.334393 -36.872448 -5.6256814 254 252 43 255
-0.0047930963 -0.02409652 -0.0007746822 -7.3634524 -37.018562 -4.519363 254 252 43 255
-0.009562877 -0.023086825 -0.011278244 -14.376553 -34.70806 -5.8037896 254 197 10 255
-0.010067066 -0.024304045 -2.3774521e-07 -14.448838 -34.88259 -4.410767 254 194 7 255
-0.011829212 -0.017703667 -0.02267114 -20.886566 -31.258951 -5.625678 254 252 43 255
-0.013649582 -0.020428045 -0.0007746822 -20.969337 -31.382822 -4.519361 254 252 43 255
-0.017669892 -0.017669892 -0.011278244 -26.5644 -26.564405 -5.803787 254 193 0 255
-0.01860151 -0.01860151 -2.3774521e-07 -26.697977 -26.697977 -4.410775 254 193 0 255
-0.017703667 -0.011829212 -0.02267114 -31.25895 -20.886572 -5.62568 254 252 43 255
-0.020428045 -0.013649582 -0.0007746822 -31.382814 -20.96934 -4.5193596 254 252 43 255
-0.023086825 -0.009562877 -0.011278244 -34.708065 -14.376554 -5.803789 254 193 2 255
-0.024304045 -0.010067066 -2.3774521e-07 -34.882587 -14.448845 -4.4107714 254 193 0 255
-0.020882899 -0.004153867 -0.02267114 -36.872448 -7.334388 -5.625678 254 252 43 255
-0.02409652 -0.0047930963 -0.0007746822 -37.018562 -7.363454 -4.519361 254 252 43 255
-0.024989001 9.05348e-12 -0.011278244 -37.567738 5.2329706e-06 -5.8037877 254 193 0 255
-0.02630651 0 -2.3774521e-07 -37.756645 -1.7967325e-06 -4.410771 254 193 3 255
-0.020882899 0.004153867 -0.02267114 -36.872448 7.334395 -5.6256785 254 252 43 255
-0.02409652 0.0047930963 -0.0007746822 -37.018562 7.3634496 -4.51936 254 252 43 255
-0.023086825 0.009562877 -0.011278244 -34.708065 14.376554 -5.8037887 254 193 0 255
-0.024304045 0.010067066 -2.3774521e-07 -34.88259 14.448836 -4.4107723 254 193 2 255
-0.017703667 0.011829212 -0.02267114 -31.25895 20.886572 -5.62568 254 252 43 255
-0.020428045 0.013649582 -0.0007746822 -31.382816 20.969337 -4.519359 254 252 43 255
-0.017669892 0.017669892 -0.011278244 -26.5644 26.564405 -5.803789 254 193 0 255
-0.01860151 0.01860151 -2.3774521e-07 -26.697977 26.697975 -4.410775 254 193 0 255
-0.011829212 0.017703667 -0.02267114 -20.886566 31.258951 -5.62568 254 252 43 255
-0.013649582 0.020428045 -0.0007746822 -20.969334 31.382816 -4.51936 254 252 43 255
-0.009562877 0.023086825 -0.011278244 -14.376554 34.708065 -5.803789 254 193 1 255
-0.010067066 0.024304045 -2.3774521e-07 -14.448839 34.88259 -4.4107637 254 193 0 255
-0.004153867 0.020882899 -0.02267114 -7.33439 36.872448 -5.62568 254 252 43 255
-0.0047930963 0.02409652 -0.0007746822 -7.3634524 37.018562 -4.5193615 254 252 43 255
3 0 3 2
3 3 4 2
3 4 7 6
3 7 8 6
3 8 11 10
3 11 12 10
3 12 15 14
3 15 16 14
3 16 19 18
3 19 20 18
3 20 23 22
3 23 24 22
3 24 27 26
3 27 28 26
3 28 31 30
3 31 32 30
3 32 35 34
3 35 36 34
3 36 39 38
3 39 40 38
3 40 43 42
3 43 44 42
3 44 47 46
3 47 48 46
3 48 51 50
3 51 52 50
3 52 55 54
3 55 56 54
3 56 59 58
3 59 60 58
3 60 63 62
3 63 0 62
3 0 1 3
3 3 5 4
3 4 5 7
3 7 9 8
3 8 9 11
3 11 13 12
3 12 13 15
3 15 17 16
3 16 17 19
3 19 21 20
3 20 21 23
3 23 25 24
3 24 25 27
3 27 29 28
3 28 29 31
3 31 33 32
3 32 33 35
3 35 37 36
3 36 37 39
3 39 41 40
3 40 41 43
3 43 45 44
3 44 45 47
3 47 49 48
3 48 49 51
3 51 53 52
3 52 53 55
3 55 57 56
3 56 57 59
3 59 61 60
3 60 61 63
3 63 1 0
