ply
format ascii 1.0
comment Created in Blender version 4.0.1
element vertex 64
property float x
property float y
property float z
property float nx
property float ny
property float nz
property uchar red
property uchar green
property uchar blue
property uchar alpha
element face 64
property list uchar uint vertex_indices
end_header
-4.7684266e-11 0.01816074 -0.042764235 7.5838852e-06 42.463314 -3.6283011 254 118 47 255
9.444801e-12 0.021626314 -0.002205421 0 42.177223 -6.1138716 254 118 47 255
0.003846432 0.019337317 -0.024217637 8.280683 41.629787 -3.8325255 254 60 16 255
0.0045776465 0.023013383 -0.0012700579 8.205638 41.252506 -6.869877 254 60 16 255
0.006949814 0.016778335 -0.042764235 16.250006 39.230984 -3.628306 254 118 47 255
0.008276032 0.019980108 -0.002205421 16.14052 38.966667 -6.113871 254 118 47 255
0.010953711 0.016393386 -0.024217637 23.58139 35.292027 -3.8325324 254 62 17 255
0.013036035 0.019509804 -0.0012700579 23.367674 34.972187 -6.8698754 254 61 16 255
0.01284158 0.01284158 -0.042764235 30.026089 30.026096 -3.6283076 254 118 47 255
0.015292113 0.015292113 -0.002205421 29.8238 29.823797 -6.1138716 254 118 47 255
0.016393386 0.010953711 -0.024217637 35.292023 23.581387 -3.8325303 254 60 16 255
0.019509804 0.013036035 -0.0012700579 34.972187 23.367674 -6.869877 254 61 16 255
0.016778335 0.006949814 -0.042764235 39.230984 16.25001 -3.6283054 254 118 47 255
0.019980108 0.008276032 -0.002205421 38.966663 16.140526 -6.113871 254 118 47 255
0.019337317 0.003846432 -0.024217637 41.629787 8.2806835 -3.832528 254 60 16 255
0.023013383 0.0045776465 -0.0012700579 41.252506 8.205648 -6.869874 254 60 16 255
0.01816074 4.7732658e-11 -0.042764235 42.463306 5.8337578e-06 -3.6283047 254 118 47 255
0.021626314 2.736178e-11 -0.002205421 42.177223 -5.1009174e-06 -6.11387 254 118 47 255
0.019337317 -0.0038464316 -0.024217637 41.629787 -8.280675 -3.832528 254 60 16 255
0.023013383 -0.0045776465 -0.0012700579 41.252506 -8.205655 -6.869875 254 60 16 255
0.016778335 -0.006949814 -0.042764235 39.230988 -16.249994 -3.628305 254 118 47 255
0.019980108 -0.008276032 -0.002205421 38.966667 -16.140526 -6.113871 254 118 47 255
0.016393386 -0.010953711 -0.024217637 35.292027 -23.581387 -3.8325298 254 60 16 255
0.019509804 -0.013036035 -0.0012700579 34.972183 -23.367674 -6.8698754 254 60 16 255
0.01284158 -0.01284158 -0.042764235 30.026093 -30.026093 -3.6283076 254 118 47 255
0.015292113 -0.015292113 -0.002205421 29.823801 -29.823792 -6.113871 254 118 47 255
0.010953711 -0.016393386 -0.024217637 23.58139 -35.292027 -3.8325322 254 60 16 255
0.013036035 -0.019509804 -0.0012700579 23.367678 -34.972187 -6.869876 254 60 16 255
0.006949814 -0.016778335 -0.042764235 16.250006 -39.230984 -3.6283047 254 118 47 255
0.008276032 -0.019980108 -0.002205421 16.140522 -38.966667 -6.1138697 254 118 47 255
0.003846432 -0.019337317 -0.024217637 8.280681 -41.629787 -3.8325257 254 60 16 255
0.0045776465 -0.023013383 -0.0012700579 8.20564 -41.252506 -6.869875 254 60 16 255
-4.7684266e-11 -0.01816074 -0.042764235 5.2503824e-06 -42.463314 -3.6283019 254 118 47 255
9.444801e-12 -0.021626314 -0.002205421 0 -42.177223 -6.113872 254 118 47 255
-0.0038464316 -0.019337317 -0.024217637 -8.280682 -41.629787 -3.8325245 254 60 16 255
-0.0045776465 -0.023013383 -0.0012700579 -8.205637 -41.252506 -6.869877 254 66 19 255
-0.006949814 -0.016778335 -0.042764235 -16.25 -39.230984 -3.6283069 254 118 47 255
-0.008276032 -0.019980108 -0.002205421 -16.14052 -38.966667 -6.113871 254 118 47 255
-0.010953711 -0.016393386 -0.024217637 -23.58139 -35.292027 -3.8325324 254 64 18 255
-0.013036035 -0.019509804 -0.0012700579 -23.367674 -34.972187 -6.8698754 254 60 16 255
-0.01284158 -0.01284158 -0.042764235 -30.026089 -30.026096 -3.6283076 254 118 47 255
-0.015292113 -0.015292113 -0.002205421 -29.8238 -29.823797 -6.1138716 254 118 47 255
-0.016393386 -0.010953711 -0.024217637 -35.292023 -23.581387 -3.8325303 254 60 16 255
-0.019509804 -0.013036035 -0.0012700579 -34.972187 -23.367674 -6.869877 254 60 16 255
-0.016778335 -0.006949814 -0.042764235 -39.230984 -16.250002 -3.628305 254 118 47 255
-0.019980108 -0.008276032 -0.002205421 -38.966663 -16.140526 -6.113871 254 118 47 255
-0.019337317 -0.0038464316 -0.024217637 -41.62979 -8.2806835 -3.8325284 254 60 16 255
-0.023013383 -0.0045776465 -0.0012700579 -41.252506 -8.205647 -6.869874 254 73 24 255
-0.01816074 4.7732658e-11 -0.042764235 -42.463306 5.8337578e-06 -3.6283047 254 118 47 255
-0.021626314 2.736178e-11 -0.002205421 -42.177223 5.1009174e-06 -6.11387 254 118 47 255
-0.019337317 0.003846432 -0.024217637 -41.629787 8.280677 -3.8325284 254 60 16 255
-0.023013383 0.0045776465 -0.0012700579 -41.252506 8.205655 -6.869875 254 60 16 255
-0.016778335 0.006949814 -0.042764235 -39.230984 16.25 -3.6283057 254 118 47 255
-0.019980108 0.008276032 -0.002205421 -38.966667 16.140526 -6.113871 254 118 47 255
-0.016393386 0.010953711 -0.024217637 -35.292027 23.581387 -3.8325298 254 60 16 255
-0.019509804 0.013036035 -0.0012700579 -34.972183 23.367674 -6.8698754 254 60 16 255
-0.01284158 0.01284158 -0.042764235 -30.026093 30.026093 -3.6283076 254 118 47 255
-0.015292113 0.015292113 -0.002205421 -29.823801 29.823792 -6.113871 254 118 47 255
-0.010953711 0.016393386 -0.024217637 -23.58139 35.292027 -3.8325322 254 63 18 255
-0.013036035 0.019509804 -0.0012700579 -23.367678 34.972187 -6.869876 254 62 17 255
-0.006949814 0.016778335 -0.042764235 -16.249998 39.230984 -3.6283057 254 118 47 255
-0.008276032 0.019980108 -0.002205421 -16.14052 38.966667 -6.113869 254 118 47 255
-0.0038464316 0.019337317 -0.024217637 -8.28068 41.629787 -3.8325243 254 60 16 255
-0.0045776465 0.023013383 -0.0012700579 -8.205637 41.252506 -6.8698735 254 60 16 255
3 1 2 0
3 2 5 4
3 5 6 4
3 6 9 8
3 9 10 8
3 10 13 12
3 13 14 12
3 14 17 16
3 17 18 16
3 18 21 20
3 21 22 20
3 22 25 24
3 25 26 24
3 26 29 28
3 29 30 28
3 30 33 32
3 33 34 32
3 34 37 36
3 37 38 36
3 38 41 40
3 41 42 40
3 42 45 44
3 45 46 44
3 46 49 48
3 49 50 48
3 50 53 52
3 53 54 52
3 54 57 56
3 57 58 56
3 58 61 60
3 61 62 60
3 62 1 0
3 1 3 2
3 2 3 5
3 5 7 6
3 6 7 9
3 9 11 10
3 10 11 13
3 13 15 14
3 14 15 17
3 17 19 18
3 18 19 21
3 21 23 22
3 22 23 25
3 25 27 26
3 26 27 29
3 29 31 30
3 30 31 33
3 33 35 34
3 34 35 37
3 37 39 38
3 38 39 41
3 41 43 42
3 42 43 45
3 45 47 46
3 46 47 49
3 49 51 50
3 50 51 53
3 53 55 54
3 54 55 57
3 57 59 58
3 58 59 61
3 61 63 62
3 62 63 1
