ply
format ascii 1.0
comment Created in Blender version 4.0.1
element vertex 64
property float x
property float y
property float z
property float nx
property float ny
property float nz
property uchar red
property uchar green
property uchar blue
property uchar alpha
element face 64
property list uchar uint vertex_indices
end_header
-4.7684266e-11 0.01816074 -0.042764235 0 42.27414 -5.4031906 254 118 47 255
0 0.023464242 -0.0012700579 -2.0423332e-07 42.441505 -3.8749752 254 118 47 255
0.004173324 0.020980714 -0.025153 8.2442255 41.4465 -5.524283 254 118 47 255
0.0045776465 0.023013383 -0.0012700579 8.283239 41.64265 -3.684421 254 118 47 255
0.006949814 0.016778335 -0.042764235 16.17761 39.056213 -5.4031925 254 118 47 255
0.008979377 0.021678133 -0.0012700579 16.241665 39.210842 -3.8749807 254 118 47 255
0.01188462 0.017786592 -0.025153 23.477554 35.136642 -5.524285 254 118 47 255
0.013036035 0.019509804 -0.0012700579 23.58867 35.302933 -3.6844213 254 118 47 255
0.01284158 0.01284158 -0.042764235 29.892334 29.89233 -5.403194 254 118 47 255
0.016591724 0.016591724 -0.0012700579 30.010681 30.010675 -3.874975 254 118 47 255
0.017786592 0.01188462 -0.025153 35.13665 23.47755 -5.524287 254 118 47 255
0.019509804 0.013036035 -0.0012700579 35.302933 23.58867 -3.6844177 254 118 47 255
0.016778335 0.006949814 -0.042764235 39.05622 16.177599 -5.403192 254 118 47 255
0.021678133 0.008979377 -0.0012700579 39.210842 16.241667 -3.874975 254 118 47 255
0.020980714 0.004173324 -0.025153 41.446503 8.244213 -5.524283 254 118 47 255
0.023013383 0.0045776465 -0.0012700579 41.64265 8.283249 -3.6844196 254 118 47 255
0.01816074 4.7732658e-11 -0.042764235 42.274136 0 -5.403191 254 118 47 255
0.023464242 0 -0.0012700579 42.44151 0 -3.8749762 254 118 47 255
0.020980714 -0.004173324 -0.025153 41.446503 -8.24422 -5.524283 254 118 47 255
0.023013383 -0.0045776465 -0.0012700579 41.64265 -8.283249 -3.6844196 254 118 47 255
0.016778335 -0.006949814 -0.042764235 39.056213 -16.17761 -5.403191 254 118 47 255
0.021678133 -0.008979377 -0.0012700579 39.210842 -16.241669 -3.874975 254 118 47 255
0.017786592 -0.01188462 -0.025153 35.136646 -23.477552 -5.5242844 254 118 47 255
0.019509804 -0.013036035 -0.0012700579 35.302933 -23.58867 -3.6844177 254 118 47 255
0.01284158 -0.01284158 -0.042764235 29.89233 -29.89233 -5.403193 254 118 47 255
0.016591724 -0.016591724 -0.0012700579 30.010681 -30.010675 -3.874975 254 118 47 255
0.01188462 -0.017786592 -0.025153 23.477558 -35.13665 -5.524285 254 118 47 255
0.013036035 -0.019509804 -0.0012700579 23.58867 -35.302933 -3.6844213 254 118 47 255
0.006949814 -0.016778335 -0.042764235 16.177608 -39.056213 -5.4031925 254 118 47 255
0.008979377 -0.021678133 -0.0012700579 16.241665 -39.210842 -3.8749797 254 118 47 255
0.004173324 -0.020980714 -0.025153 8.244224 -41.4465 -5.524283 254 118 47 255
0.0045776465 -0.023013383 -0.0012700579 8.283239 -41.64265 -3.6844194 254 118 47 255
-4.7684266e-11 -0.01816074 -0.042764235 0 -42.27414 -5.4031906 254 118 47 255
0 -0.023464242 -0.0012700579 2.0423332e-07 -42.441505 -3.8749752 254 118 47 255
-0.004173324 -0.020980714 -0.025153 -8.2442255 -41.4465 -5.524283 254 118 47 255
-0.0045776465 -0.023013383 -0.0012700579 -8.283239 -41.64265 -3.684421 254 118 47 255
-0.006949814 -0.016778335 -0.042764235 -16.17761 -39.056213 -5.4031925 254 118 47 255
-0.008979377 -0.021678133 -0.0012700579 -16.241665 -39.210842 -3.8749807 254 118 47 255
-0.01188462 -0.017786592 -0.025153 -23.477554 -35.136642 -5.524285 254 118 47 255
-0.013036035 -0.019509804 -0.0012700579 -23.58867 -35.302933 -3.6844213 254 118 47 255
-0.01284158 -0.01284158 -0.042764235 -29.892334 -29.89233 -5.403194 254 118 47 255
-0.016591724 -0.016591724 -0.0012700579 -30.010681 -30.010675 -3.874975 254 118 47 255
-0.017786592 -0.01188462 -0.025153 -35.13665 -23.47755 -5.524287 254 118 47 255
-0.019509804 -0.013036035 -0.0012700579 -35.302933 -23.58867 -3.6844177 254 118 47 255
-0.016778335 -0.006949814 -0.042764235 -39.05622 -16.177599 -5.403192 254 118 47 255
-0.021678133 -0.008979377 -0.0012700579 -39.210842 -16.241667 -3.874975 254 118 47 255
-0.020980714 -0.004173324 -0.025153 -41.446503 -8.244213 -5.524283 254 118 47 255
-0.023013383 -0.0045776465 -0.0012700579 -41.64265 -8.283249 -3.6844196 254 118 47 255
-0.01816074 4.7732658e-11 -0.042764235 -42.274136 0 -5.403191 254 118 47 255
-0.023464242 0 -0.0012700579 -42.44151 0 -3.8749762 254 118 47 255
-0.020980714 0.004173324 -0.025153 -41.446503 8.24422 -5.524283 254 118 47 255
-0.023013383 0.0045776465 -0.0012700579 -41.64265 8.283249 -3.6844196 254 118 47 255
-0.016778335 0.006949814 -0.042764235 -39.056213 16.17761 -5.403191 254 118 47 255
-0.021678133 0.008979377 -0.0012700579 -39.210842 16.241669 -3.874975 254 118 47 255
-0.017786592 0.01188462 -0.025153 -35.136646 23.477552 -5.5242844 254 118 47 255
-0.019509804 0.013036035 -0.0012700579 -35.302933 23.58867 -3.6844177 254 118 47 255
-0.01284158 0.01284158 -0.042764235 -29.89233 29.89233 -5.403193 254 118 47 255
-0.016591724 0.016591724 -0.0012700579 -30.010681 30.010675 -3.874975 254 118 47 255
-0.01188462 0.017786592 -0.025153 -23.477558 35.13665 -5.524285 254 118 47 255
-0.013036035 0.019509804 -0.0012700579 -23.58867 35.302933 -3.6844213 254 118 47 255
-0.006949814 0.016778335 -0.042764235 -16.177608 39.056213 -5.4031925 254 118 47 255
-0.008979377 0.021678133 -0.0012700579 -16.241665 39.210842 -3.8749797 254 118 47 255
-0.004173324 0.020980714 -0.025153 -8.244224 41.4465 -5.524283 254 118 47 255
-0.0045776465 0.023013383 -0.0012700579 -8.283239 41.64265 -3.6844194 254 118 47 255
3 1 2 0
3 2 5 4
3 5 6 4
3 6 9 8
3 9 10 8
3 10 13 12
3 13 14 12
3 14 17 16
3 17 18 16
3 18 21 20
3 21 22 20
3 22 25 24
3 25 26 24
3 26 29 28
3 29 30 28
3 30 33 32
3 33 34 32
3 34 37 36
3 37 38 36
3 38 41 40
3 41 42 40
3 42 45 44
3 45 46 44
3 46 49 48
3 49 50 48
3 50 53 52
3 53 54 52
3 54 57 56
3 57 58 56
3 58 61 60
3 61 62 60
3 62 1 0
3 1 3 2
3 2 3 5
3 5 7 6
3 6 7 9
3 9 11 10
3 10 11 13
3 13 15 14
3 14 15 17
3 17 19 18
3 18 19 21
3 21 23 22
3 22 23 25
3 25 27 26
3 26 27 29
3 29 31 30
3 30 31 33
3 33 35 34
3 34 35 37
3 37 39 38
3 38 39 41
3 41 43 42
3 42 43 45
3 45 47 46
3 46 47 49
3 49 51 50
3 50 51 53
3 53 55 54
3 54 55 57
3 57 59 58
3 58 59 61
3 61 63 62
3 62 63 1
