ply
format ascii 1.0
comment Created in Blender version 4.0.1
element vertex 64
property float x
property float y
property float z
property float nx
property float ny
property float nz
property uchar red
property uchar green
property uchar blue
property uchar alpha
element face 64
property list uchar uint vertex_indices
end_header
1.1882698e-11 0.024989001 -0.011278244 8.234874e-07 37.612274 -5.507805 254 252 43 255
0 0.02630651 -2.3774521e-07 0 37.75664 -4.410764 254 252 43 255
0.004447699 0.022360094 -0.023445584 7.334392 36.872448 -5.6256804 254 252 43 255
0.0051321457 0.025801037 -2.3774521e-07 7.3584867 36.993595 -4.7270975 254 252 43 255
0.009562877 0.023086825 -0.011278244 14.393593 34.74921 -5.507806 254 252 43 255
0.010067066 0.024304045 -2.3774521e-07 14.448839 34.882587 -4.410785 254 252 43 255
0.012665976 0.018955972 -0.023445584 20.886562 31.258953 -5.625683 254 252 43 255
0.014615114 0.021873062 -2.3774521e-07 20.955193 31.361654 -4.727105 254 252 43 255
0.017669892 0.017669892 -0.011278244 26.595894 26.595894 -5.5078073 254 252 43 255
0.01860151 0.01860151 -2.3774521e-07 26.697979 26.697979 -4.410767 254 252 43 255
0.018955972 0.012665976 -0.023445584 31.258947 20.886568 -5.625681 254 252 43 255
0.021873062 0.014615114 -2.3774521e-07 31.361654 20.955193 -4.727095 254 252 43 255
0.023086825 0.009562877 -0.011278244 34.74921 14.393597 -5.507806 254 252 43 255
0.024304045 0.010067066 -2.3774521e-07 34.882587 14.448847 -4.4107738 254 252 43 255
0.022360094 0.004447699 -0.023445584 36.87245 7.334379 -5.625679 254 252 43 255
0.025801037 0.0051321457 -2.3774521e-07 36.99359 7.358501 -4.727098 254 252 43 255
0.024989001 9.05348e-12 -0.011278244 37.61227 -5.9702834e-06 -5.507806 254 252 43 255
0.02630651 0 -2.3774521e-07 37.75664 0 -4.41077 254 252 43 255
0.022360094 -0.004447699 -0.023445584 36.872448 -7.334387 -5.625679 254 252 43 255
0.025801037 -0.0051321457 -2.3774521e-07 36.99359 -7.358503 -4.727098 254 252 43 255
0.023086825 -0.009562877 -0.011278244 34.74921 -14.393599 -5.507806 254 252 43 255
0.024304045 -0.010067066 -2.3774521e-07 34.882587 -14.448847 -4.410773 254 252 43 255
0.018955972 -0.012665976 -0.023445584 31.258947 -20.886568 -5.6256814 254 252 43 255
0.021873062 -0.014615114 -2.3774521e-07 31.361654 -20.955194 -4.727095 254 252 43 255
0.017669892 -0.017669892 -0.011278244 26.595898 -26.59589 -5.5078096 254 252 43 255
0.01860151 -0.01860151 -2.3774521e-07 26.697975 -26.697979 -4.4107685 254 252 43 255
0.012665976 -0.018955972 -0.023445584 20.886568 -31.258947 -5.6256847 254 252 43 255
0.014615114 -0.021873062 -2.3774521e-07 20.955193 -31.361654 -4.7271047 254 252 43 255
0.009562877 -0.023086825 -0.011278244 14.393595 -34.74921 -5.507806 254 252 43 255
0.010067066 -0.024304045 -2.3774521e-07 14.448839 -34.882587 -4.410783 254 252 43 255
0.004447699 -0.022360094 -0.023445584 7.334391 -36.872448 -5.6256785 254 252 43 255
0.0051321457 -0.025801037 -2.3774521e-07 7.3584867 -36.993595 -4.7270956 254 252 43 255
1.1882698e-11 -0.024989001 -0.011278244 -8.234874e-07 -37.612274 -5.507805 254 252 43 255
0 -0.02630651 -2.3774521e-07 0 -37.75664 -4.4107637 254 252 43 255
-0.004447699 -0.022360094 -0.023445584 -7.334392 -36.872448 -5.6256804 254 252 43 255
-0.0051321457 -0.025801037 -2.3774521e-07 -7.3584867 -36.993595 -4.7270975 254 252 43 255
-0.009562877 -0.023086825 -0.011278244 -14.393593 -34.74921 -5.507806 254 252 43 255
-0.010067066 -0.024304045 -2.3774521e-07 -14.448839 -34.882587 -4.410785 254 252 43 255
-0.012665976 -0.018955972 -0.023445584 -20.886562 -31.258953 -5.625683 254 252 43 255
-0.014615114 -0.021873062 -2.3774521e-07 -20.955193 -31.361654 -4.727105 254 252 43 255
-0.017669892 -0.017669892 -0.011278244 -26.595894 -26.595894 -5.5078073 254 252 43 255
-0.01860151 -0.01860151 -2.3774521e-07 -26.697979 -26.697979 -4.410767 254 252 43 255
-0.018955972 -0.012665976 -0.023445584 -31.258947 -20.886568 -5.625681 254 252 43 255
-0.021873062 -0.014615114 -2.3774521e-07 -31.361654 -20.955193 -4.727095 254 252 43 255
-0.023086825 -0.009562877 -0.011278244 -34.74921 -14.393597 -5.507806 254 252 43 255
-0.024304045 -0.010067066 -2.3774521e-07 -34.882587 -14.448847 -4.4107738 254 252 43 255
-0.022360094 -0.004447699 -0.023445584 -36.87245 -7.334379 -5.625679 254 252 43 255
-0.025801037 -0.0051321457 -2.3774521e-07 -36.99359 -7.358501 -4.727098 254 252 43 255
-0.024989001 9.05348e-12 -0.011278244 -37.61227 5.9702834e-06 -5.507806 254 252 43 255
-0.02630651 0 -2.3774521e-07 -37.75664 0 -4.41077 254 252 43 255
-0.022360094 0.004447699 -0.023445584 -36.872448 7.334387 -5.625679 254 252 43 255
-0.025801037 0.0051321457 -2.3774521e-07 -36.99359 7.358503 -4.727098 254 252 43 255
-0.023086825 0.009562877 -0.011278244 -34.74921 14.393599 -5.507806 254 252 43 255
-0.024304045 0.010067066 -2.3774521e-07 -34.882587 14.448847 -4.410773 254 252 43 255
-0.018955972 0.012665976 -0.023445584 -31.258947 20.886568 -5.6256814 254 252 43 255
-0.021873062 0.014615114 -2.3774521e-07 -31.361654 20.955194 -4.727095 254 252 43 255
-0.017669892 0.017669892 -0.011278244 -26.595898 26.59589 -5.5078096 254 252 43 255
-0.01860151 0.01860151 -2.3774521e-07 -26.697975 26.697979 -4.4107685 254 252 43 255
-0.012665976 0.018955972 -0.023445584 -20.886568 31.258947 -5.6256847 254 252 43 255
-0.014615114 0.021873062 -2.3774521e-07 -20.955193 31.361654 -4.7271047 254 252 43 255
-0.009562877 0.023086825 -0.011278244 -14.393595 34.74921 -5.507806 254 252 43 255
-0.010067066 0.024304045 -2.3774521e-07 -14.448839 34.882587 -4.410783 254 252 43 255
-0.004447699 0.022360094 -0.023445584 -7.334391 36.872448 -5.6256785 254 252 43 255
-0.0051321457 0.025801037 -2.3774521e-07 -7.3584867 36.993595 -4.727096 254 252 43 255
3 0 3 2
3 3 4 2
3 4 7 6
3 7 8 6
3 8 11 10
3 11 12 10
3 12 15 14
3 15 16 14
3 16 19 18
3 19 20 18
3 20 23 22
3 23 24 22
3 24 27 26
3 27 28 26
3 28 31 30
3 31 32 30
3 32 35 34
3 35 36 34
3 36 39 38
3 39 40 38
3 40 43 42
3 43 44 42
3 44 47 46
3 47 48 46
3 48 51 50
3 51 52 50
3 52 55 54
3 55 56 54
3 56 59 58
3 59 60 58
3 60 63 62
3 63 0 62
3 0 1 3
3 3 5 4
3 4 5 7
3 7 9 8
3 8 9 11
3 11 13 12
3 12 13 15
3 15 17 16
3 16 17 19
3 19 21 20
3 20 21 23
3 23 25 24
3 24 25 27
3 27 29 28
3 28 29 31
3 31 33 32
3 32 33 35
3 35 37 36
3 36 37 39
3 39 41 40
3 40 41 43
3 43 45 44
3 44 45 47
3 47 49 48
3 48 49 51
3 51 53 52
3 52 53 55
3 55 57 56
3 56 57 59
3 59 61 60
3 60 61 63
3 63 1 0
